<svg width="76" height="62" viewBox="0 0 76 62" fill="none" xmlns="http://www.w3.org/2000/svg">
<path fill-rule="evenodd" clip-rule="evenodd" d="M68.196 48.19L68.164 62L56.894 49.248H33.038C25.942 49.248 20.188 43.494 20.188 36.396V21.444C20.188 14.348 25.94 8.594 33.038 8.594H63.108C70.204 8.594 75.958 14.348 75.958 21.444V36.396C75.958 41.686 72.758 46.218 68.196 48.19ZM16.046 21.406V32.114L6.458 42.828L6.44 31.218C2.654 29.568 0 25.8 0 21.406V10.708C0 4.792 4.792 0 10.71 0H36.148C39.634 0 42.702 1.692 44.656 4.27H33.18C23.716 4.27 16.046 11.94 16.046 21.406Z" fill="#ADC5A2"/>
</svg>
